M48
;Layer_Color=9474304
;FILE_FORMAT=4:4
METRIC,LZ
;TYPE=PLATED
T1F00S00C0.6000
T2F00S00C1.0000
%
T01
X0093758Y0062358
Y0064358
Y0066358
Y0068358
Y0070358
Y0072358
Y0074358
Y0076358
X0095758
Y0074358
Y0072358
Y0070358
Y0068358
Y0066358
Y0064358
Y0062358
Y0078358
X0093758
X0093758Y0080358
X0095758
T02
X0100584Y0060071
Y0062611
Y0065151
Y0067691
Y0070231
Y0072771
Y0075311
Y0077851
X0103124
Y0075311
Y0072771
Y0070231
Y0067691
Y0065151
Y0062611
Y0060071
Y0080391
Y0082931
X0100584
Y0080391
M30
