%FSLAX44Y44*%
%MOMM*%
G71*
G01*
G75*
G04 Layer_Color=2752767*
%ADD10C,0.2540*%
%ADD11R,1.5240X1.5240*%
%ADD12R,1.2000X1.2000*%
%ADD13C,0.1270*%
%ADD14C,0.1693*%
D13*
X1000760Y824230D02*
Y834390D01*
X1010920D01*
Y824230D01*
X1000760D01*
X1026160D02*
Y834390D01*
X1036320D01*
Y824230D01*
X1026160D01*
X1000760Y798830D02*
Y808990D01*
X1010920D01*
Y798830D01*
X1000760D01*
X1026160D02*
Y808990D01*
X1036320D01*
Y798830D01*
X1026160D01*
X1000760Y773430D02*
Y783590D01*
X1010920D01*
Y773430D01*
X1000760D01*
X1026160D02*
Y783590D01*
X1036320D01*
Y773430D01*
X1026160D01*
X1000760Y748030D02*
Y758190D01*
X1010920D01*
Y748030D01*
X1000760D01*
X1026160D02*
Y758190D01*
X1036320D01*
Y748030D01*
X1026160D01*
X1000760Y722630D02*
Y732790D01*
X1010920D01*
Y722630D01*
X1000760D01*
X1026160D02*
Y732790D01*
X1036320D01*
Y722630D01*
X1026160D01*
X1000760Y697230D02*
Y707390D01*
X1010920D01*
Y697230D01*
X1000760D01*
X1026160D02*
Y707390D01*
X1036320D01*
Y697230D01*
X1026160D01*
X1000760Y671830D02*
Y681990D01*
X1010920D01*
Y671830D01*
X1000760D01*
X1026160D02*
Y681990D01*
X1036320D01*
Y671830D01*
X1026160D01*
X1000760Y646430D02*
Y656590D01*
X1010920D01*
Y646430D01*
X1000760D01*
X1026160D02*
Y656590D01*
X1036320D01*
Y646430D01*
X1026160D01*
X1000760Y621030D02*
Y631190D01*
X1010920D01*
Y621030D01*
X1000760D01*
X1026160D02*
Y631190D01*
X1036320D01*
Y621030D01*
X1026160D01*
X1000760Y595630D02*
Y605790D01*
X1010920D01*
Y595630D01*
X1000760D01*
X1026160D02*
Y605790D01*
X1036320D01*
Y595630D01*
X1026160D01*
D14*
X962660Y803580D02*
G03*
X962660Y803580I-5080J0D01*
G01*
X942660D02*
G03*
X942660Y803580I-5080J0D01*
G01*
X942660Y783580D02*
G03*
X942660Y783580I-5080J0D01*
G01*
X962660D02*
G03*
X962660Y783580I-5080J0D01*
G01*
X942660Y763580D02*
G03*
X942660Y763580I-5080J0D01*
G01*
X962660D02*
G03*
X962660Y763580I-5080J0D01*
G01*
X942660Y743580D02*
G03*
X942660Y743580I-5080J0D01*
G01*
X962660D02*
G03*
X962660Y743580I-5080J0D01*
G01*
X942660Y723580D02*
G03*
X942660Y723580I-5080J0D01*
G01*
X962660D02*
G03*
X962660Y723580I-5080J0D01*
G01*
X942660Y703580D02*
G03*
X942660Y703580I-5080J0D01*
G01*
X962660D02*
G03*
X962660Y703580I-5080J0D01*
G01*
X942660Y683580D02*
G03*
X942660Y683580I-5080J0D01*
G01*
X962660D02*
G03*
X962660Y683580I-5080J0D01*
G01*
X942660Y663580D02*
G03*
X942660Y663580I-5080J0D01*
G01*
X962660D02*
G03*
X962660Y663580I-5080J0D01*
G01*
X942660Y643580D02*
G03*
X942660Y643580I-5080J0D01*
G01*
X962660D02*
G03*
X962660Y643580I-5080J0D01*
G01*
X942660Y623580D02*
G03*
X942660Y623580I-5080J0D01*
G01*
X962660D02*
G03*
X962660Y623580I-5080J0D01*
G01*
M02*
