%FSLAX44Y44*%
%MOMM*%
G71*
G01*
G75*
G04 Layer_Physical_Order=1*
G04 Layer_Color=255*
%ADD10C,0.2540*%
%ADD11R,1.5240X1.5240*%
%ADD12R,1.2000X1.2000*%
D10*
X750540Y796580D02*
X840450D01*
X740730Y786770D02*
X750540Y796580D01*
X840450D02*
X863600Y773430D01*
X750280Y856960D02*
X849920D01*
X742950Y849630D02*
X750280Y856960D01*
X849920D02*
X852170Y854710D01*
X749580Y876580D02*
X874750D01*
X744220Y871220D02*
X749580Y876580D01*
X874750D02*
X876300Y875030D01*
X802640Y896620D02*
X806450Y900430D01*
X750580Y896620D02*
X802640D01*
X740730Y886770D02*
X750580Y896620D01*
X848010Y816960D02*
X866140Y798830D01*
X750920Y816960D02*
X848010D01*
X740730Y806770D02*
X750920Y816960D01*
X740730Y766770D02*
X750920Y776960D01*
X740730Y906770D02*
X750900Y916940D01*
X777240D01*
X786130Y925830D01*
X863600Y786130D02*
X889000D01*
X842960Y806770D02*
X863600Y786130D01*
X760730Y806770D02*
X842960D01*
X889000Y811530D02*
X901700Y824230D01*
X864870Y811530D02*
X889000D01*
X849630Y826770D02*
X864870Y811530D01*
Y836930D02*
X889000D01*
X855030Y846770D02*
X864870Y836930D01*
X760730Y846770D02*
X855030D01*
X861060Y854710D02*
X866140Y849630D01*
X852170Y854710D02*
X861060D01*
X866140Y849630D02*
X876300D01*
X858520Y862330D02*
X889000D01*
X854080Y866770D02*
X858520Y862330D01*
X760730Y866770D02*
X854080D01*
X887730Y887730D02*
X900430Y900430D01*
X761690Y887730D02*
X887730D01*
X760730Y886770D02*
X761690Y887730D01*
X889000Y913130D02*
X901700Y925830D01*
X797560Y913130D02*
X889000D01*
X791200Y906770D02*
X797560Y913130D01*
X889000Y938530D02*
X901700Y951230D01*
X772490Y938530D02*
X889000D01*
X760730Y926770D02*
X772490Y938530D01*
X740730Y926770D02*
X765190Y951230D01*
X876300D01*
X786130Y925830D02*
X876300D01*
X760730Y906770D02*
X791200D01*
X806450Y900430D02*
X876300D01*
X900430D02*
X901700D01*
X889000Y862330D02*
X901700Y875030D01*
X889000Y836930D02*
X901700Y849630D01*
X760730Y826770D02*
X849630D01*
X866140Y824230D02*
X876300D01*
X853440Y836930D02*
X866140Y824230D01*
X750570Y836930D02*
X853440D01*
X740730Y827090D02*
X750570Y836930D01*
X740730Y826770D02*
Y827090D01*
X889000Y786130D02*
X901700Y798830D01*
X866140D02*
X876300D01*
X740730Y806770D02*
X740730D01*
X760730Y786770D02*
X836290D01*
X862330Y760730D01*
X889000D01*
X901700Y773430D01*
X863600D02*
X876300D01*
X760730Y766770D02*
X830890D01*
X862330Y735330D01*
X889000D01*
X901700Y748030D01*
X862330D02*
X876300D01*
X833400Y776960D02*
X862330Y748030D01*
X750920Y776960D02*
X833400D01*
X760730Y746770D02*
X822950D01*
X863600Y706120D01*
X885190D01*
X901700Y722630D01*
X861060D02*
X876300D01*
X826770Y756920D02*
X861060Y722630D01*
X750880Y756920D02*
X826770D01*
X740730Y746770D02*
X750880Y756920D01*
D11*
X876300Y951230D02*
D03*
X901700D02*
D03*
X876300Y925830D02*
D03*
X901700D02*
D03*
X876300Y900430D02*
D03*
X901700D02*
D03*
X876300Y875030D02*
D03*
X901700D02*
D03*
X876300Y849630D02*
D03*
X901700D02*
D03*
X876300Y824230D02*
D03*
X901700D02*
D03*
X876300Y798830D02*
D03*
X901700D02*
D03*
X876300Y773430D02*
D03*
X901700D02*
D03*
X876300Y748030D02*
D03*
X901700D02*
D03*
X876300Y722630D02*
D03*
X901700D02*
D03*
D12*
X760730Y926770D02*
D03*
X740730D02*
D03*
X740730Y906770D02*
D03*
X760730D02*
D03*
X740730Y886770D02*
D03*
X760730D02*
D03*
X740730Y866770D02*
D03*
X760730D02*
D03*
X740730Y846770D02*
D03*
X760730D02*
D03*
X740730Y826770D02*
D03*
X760730D02*
D03*
X740730Y806770D02*
D03*
X760730D02*
D03*
X740730Y786770D02*
D03*
X760730D02*
D03*
X740730Y766770D02*
D03*
X760730D02*
D03*
X740730Y746770D02*
D03*
X760730D02*
D03*
M02*
