%FSLAX44Y44*%
%MOMM*%
G71*
G01*
G75*
G04 Layer_Physical_Order=1*
G04 Layer_Color=255*
%ADD10C,0.2540*%
%ADD11R,1.5240X1.5240*%
%ADD12R,1.2000X1.2000*%
D10*
X937580Y803580D02*
X949340Y815340D01*
X960120D01*
X974090Y829310D01*
X1005840D01*
X957580Y803580D02*
X970610Y816610D01*
X1018540D01*
X1031240Y829310D01*
X937580Y803580D02*
Y806770D01*
X988060Y664210D02*
X1018540D01*
X969010Y683260D02*
X988060Y664210D01*
X957900Y683260D02*
X969010D01*
X989330Y651510D02*
X1005840D01*
X967450Y673390D02*
X989330Y651510D01*
X947390Y673390D02*
X967450D01*
X991870Y638810D02*
X1018540D01*
X967100Y663580D02*
X991870Y638810D01*
X957580Y663580D02*
X967100D01*
X968050Y643580D02*
X977900Y633730D01*
Y628650D02*
Y633730D01*
Y628650D02*
X993140Y613410D01*
X957580Y643580D02*
X968050D01*
X957580Y621030D02*
Y623580D01*
Y621030D02*
X991870Y586740D01*
X1017270D01*
X1031240Y600710D01*
X937580Y623580D02*
X947730Y633730D01*
X969010D01*
X970280Y632460D01*
Y621030D02*
Y632460D01*
Y621030D02*
X990600Y600710D01*
X1005840D01*
X993140Y613410D02*
X1018540D01*
X1031240Y626110D01*
X937580Y643580D02*
X948050Y654050D01*
X949722D01*
X950002Y653770D01*
X966750D01*
X994410Y626110D01*
X1005840D01*
X1018540Y638810D02*
X1031240Y651510D01*
X937580Y663580D02*
X947390Y673390D01*
X957580Y683580D02*
X957900Y683260D01*
X1018540Y664210D02*
X1031240Y676910D01*
X937580Y683580D02*
X947420Y693420D01*
X970280D01*
X986790Y676910D01*
X1005840D01*
X957580Y703580D02*
X971550D01*
X985520Y689610D01*
X1017270D01*
X1029970Y702310D01*
X1031240D01*
X937580Y703580D02*
X947740Y713740D01*
X975360D01*
X986790Y702310D01*
X1005840D01*
X957580Y723580D02*
X978220D01*
X986790Y715010D01*
X1018540D01*
X1031240Y727710D01*
X937580Y723580D02*
X938210D01*
X948020Y733390D01*
X984920D01*
X990600Y727710D01*
X1005840D01*
X957580Y743580D02*
X958210Y742950D01*
X988060D01*
X990600Y740410D01*
X1018540D01*
X1031240Y753110D01*
X947390Y753390D02*
X1005840D01*
X937580Y743580D02*
X947390Y753390D01*
X1005840Y753110D02*
Y753390D01*
X957580Y763580D02*
X987100D01*
X989330Y765810D01*
X1018540D01*
X1031240Y778510D01*
X937580Y763580D02*
Y763590D01*
X947420Y773430D01*
X977900D01*
X982980Y778510D01*
X1005840D01*
X957580Y783580D02*
X971540D01*
X979170Y791210D01*
X1018540D01*
X1031240Y803910D01*
X937580Y783580D02*
X947770Y793770D01*
X965158D01*
X975298Y803910D01*
X1005840D01*
D11*
Y829310D02*
D03*
X1031240D02*
D03*
X1005840Y803910D02*
D03*
X1031240D02*
D03*
X1005840Y778510D02*
D03*
X1031240D02*
D03*
X1005840Y753110D02*
D03*
X1031240D02*
D03*
X1005840Y727710D02*
D03*
X1031240D02*
D03*
X1005840Y702310D02*
D03*
X1031240D02*
D03*
X1005840Y676910D02*
D03*
X1031240D02*
D03*
X1005840Y651510D02*
D03*
X1031240D02*
D03*
X1005840Y626110D02*
D03*
X1031240D02*
D03*
X1005840Y600710D02*
D03*
X1031240D02*
D03*
D12*
X957580Y803580D02*
D03*
X937580D02*
D03*
X937580Y783580D02*
D03*
X957580D02*
D03*
X937580Y763580D02*
D03*
X957580D02*
D03*
X937580Y743580D02*
D03*
X957580D02*
D03*
X937580Y723580D02*
D03*
X957580D02*
D03*
X937580Y703580D02*
D03*
X957580D02*
D03*
X937580Y683580D02*
D03*
X957580D02*
D03*
X937580Y663580D02*
D03*
X957580D02*
D03*
X937580Y643580D02*
D03*
X957580D02*
D03*
X937580Y623580D02*
D03*
X957580D02*
D03*
M02*
