%FSLAX44Y44*%
%MOMM*%
G71*
G01*
G75*
%ADD10C,0.2540*%
%ADD11R,1.5240X1.5240*%
%ADD12R,1.2000X1.2000*%
%ADD13C,0.1270*%
%ADD14C,0.1693*%
D13*
X1000840Y829310D02*
X1010840D01*
X1005840Y824310D02*
Y834310D01*
X1026240Y829310D02*
X1036240D01*
X1031240Y824310D02*
Y834310D01*
X1000840Y803910D02*
X1010840D01*
X1005840Y798910D02*
Y808910D01*
X1026240Y803910D02*
X1036240D01*
X1031240Y798910D02*
Y808910D01*
X1000840Y778510D02*
X1010840D01*
X1005840Y773510D02*
Y783510D01*
X1026240Y778510D02*
X1036240D01*
X1031240Y773510D02*
Y783510D01*
X1000840Y753110D02*
X1010840D01*
X1005840Y748110D02*
Y758110D01*
X1026240Y753110D02*
X1036240D01*
X1031240Y748110D02*
Y758110D01*
X1000840Y727710D02*
X1010840D01*
X1005840Y722710D02*
Y732710D01*
X1026240Y727710D02*
X1036240D01*
X1031240Y722710D02*
Y732710D01*
X1000840Y702310D02*
X1010840D01*
X1005840Y697310D02*
Y707310D01*
X1026240Y702310D02*
X1036240D01*
X1031240Y697310D02*
Y707310D01*
X1000840Y676910D02*
X1010840D01*
X1005840Y671910D02*
Y681910D01*
X1026240Y676910D02*
X1036240D01*
X1031240Y671910D02*
Y681910D01*
X1000840Y651510D02*
X1010840D01*
X1005840Y646510D02*
Y656510D01*
X1026240Y651510D02*
X1036240D01*
X1031240Y646510D02*
Y656510D01*
X1000840Y626110D02*
X1010840D01*
X1005840Y621110D02*
Y631110D01*
X1026240Y626110D02*
X1036240D01*
X1031240Y621110D02*
Y631110D01*
X1000840Y600710D02*
X1010840D01*
X1005840Y595710D02*
Y605710D01*
X1026240Y600710D02*
X1036240D01*
X1031240Y595710D02*
Y605710D01*
X954580Y803580D02*
X960580D01*
X957580Y800580D02*
Y806580D01*
X934580Y803580D02*
X940580D01*
X937580Y800580D02*
Y806580D01*
X934580Y783580D02*
X940580D01*
X937580Y780580D02*
Y786580D01*
X954580Y783580D02*
X960580D01*
X957580Y780580D02*
Y786580D01*
X934580Y763580D02*
X940580D01*
X937580Y760580D02*
Y766580D01*
X954580Y763580D02*
X960580D01*
X957580Y760580D02*
Y766580D01*
X934580Y743580D02*
X940580D01*
X937580Y740580D02*
Y746580D01*
X954580Y743580D02*
X960580D01*
X957580Y740580D02*
Y746580D01*
X934580Y723580D02*
X940580D01*
X937580Y720580D02*
Y726580D01*
X954580Y723580D02*
X960580D01*
X957580Y720580D02*
Y726580D01*
X934580Y703580D02*
X940580D01*
X937580Y700580D02*
Y706580D01*
X954580Y703580D02*
X960580D01*
X957580Y700580D02*
Y706580D01*
X934580Y683580D02*
X940580D01*
X937580Y680580D02*
Y686580D01*
X954580Y683580D02*
X960580D01*
X957580Y680580D02*
Y686580D01*
X934580Y663580D02*
X940580D01*
X937580Y660580D02*
Y666580D01*
X954580Y663580D02*
X960580D01*
X957580Y660580D02*
Y666580D01*
X934580Y643580D02*
X940580D01*
X937580Y640580D02*
Y646580D01*
X954580Y643580D02*
X960580D01*
X957580Y640580D02*
Y646580D01*
X934580Y623580D02*
X940580D01*
X937580Y620580D02*
Y626580D01*
X954580Y623580D02*
X960580D01*
X957580Y620580D02*
Y626580D01*
M02*
