M48
;Layer_Color=9474304
;FILE_FORMAT=4:4
METRIC,LZ
;TYPE=PLATED
T1F00S00C0.5000
T2F00S00C0.6000
T3F00S00C0.7620
%
T01
X0074073Y0074677
Y0076677
Y0078677
X0076073
Y0076677
Y0074677
Y0080677
Y0082677
Y0084677
Y0086677
Y0088677
Y0090677
Y0092677
X0074073Y0090677
X0074073Y0088677
Y0086677
Y0084677
Y0082677
Y0080677
T02
X0074073Y0092677
T03
X008763Y0072263
Y0074803
Y0077343
X009017
Y0074803
Y0072263
Y0079883
Y0082423
Y0084963
Y0087503
Y0090043
Y0092583
Y0095123
X008763
Y0092583
Y0090043
Y0087503
Y0084963
Y0082423
Y0079883
M30
