%FSLAX44Y44*%
%MOMM*%
G71*
G01*
G75*
G04 Layer_Color=2752767*
%ADD10C,0.2540*%
%ADD11R,1.2000X1.2000*%
%ADD12C,1.5240*%
%ADD13C,0.1270*%
%ADD14C,0.1693*%
D13*
X755650Y921690D02*
Y931850D01*
X765810D01*
Y921690D01*
X755650D01*
X735650Y901690D02*
Y911850D01*
X745810D01*
Y901690D01*
X735650D01*
X755650D02*
Y911850D01*
X765810D01*
Y901690D01*
X755650D01*
X735650Y881690D02*
Y891850D01*
X745810D01*
Y881690D01*
X735650D01*
X755650D02*
Y891850D01*
X765810D01*
Y881690D01*
X755650D01*
X735650Y861690D02*
Y871850D01*
X745810D01*
Y861690D01*
X735650D01*
X755650D02*
Y871850D01*
X765810D01*
Y861690D01*
X755650D01*
X735650Y841690D02*
Y851850D01*
X745810D01*
Y841690D01*
X735650D01*
X755650D02*
Y851850D01*
X765810D01*
Y841690D01*
X755650D01*
X735650Y821690D02*
Y831850D01*
X745810D01*
Y821690D01*
X735650D01*
X755650D02*
Y831850D01*
X765810D01*
Y821690D01*
X755650D01*
X735650Y801690D02*
Y811850D01*
X745810D01*
Y801690D01*
X735650D01*
X755650D02*
Y811850D01*
X765810D01*
Y801690D01*
X755650D01*
X735650Y781690D02*
Y791850D01*
X745810D01*
Y781690D01*
X735650D01*
X755650D02*
Y791850D01*
X765810D01*
Y781690D01*
X755650D01*
X735650Y761690D02*
Y771850D01*
X745810D01*
Y761690D01*
X735650D01*
X755650D02*
Y771850D01*
X765810D01*
Y761690D01*
X755650D01*
X735650Y741690D02*
Y751850D01*
X745810D01*
Y741690D01*
X735650D01*
X755650D02*
Y751850D01*
X765810D01*
Y741690D01*
X755650D01*
X876300Y946150D02*
X871220Y956310D01*
X881380D01*
X876300Y946150D01*
X901700D02*
X896620Y956310D01*
X906780D01*
X901700Y946150D01*
X876300Y920750D02*
X871220Y930910D01*
X881380D01*
X876300Y920750D01*
X901700D02*
X896620Y930910D01*
X906780D01*
X901700Y920750D01*
X876300Y895350D02*
X871220Y905510D01*
X881380D01*
X876300Y895350D01*
X901700D02*
X896620Y905510D01*
X906780D01*
X901700Y895350D01*
X876300Y869950D02*
X871220Y880110D01*
X881380D01*
X876300Y869950D01*
X901700D02*
X896620Y880110D01*
X906780D01*
X901700Y869950D01*
X876300Y844550D02*
X871220Y854710D01*
X881380D01*
X876300Y844550D01*
X901700D02*
X896620Y854710D01*
X906780D01*
X901700Y844550D01*
X876300Y819150D02*
X871220Y829310D01*
X881380D01*
X876300Y819150D01*
X901700D02*
X896620Y829310D01*
X906780D01*
X901700Y819150D01*
X876300Y793750D02*
X871220Y803910D01*
X881380D01*
X876300Y793750D01*
X901700D02*
X896620Y803910D01*
X906780D01*
X901700Y793750D01*
X876300Y768350D02*
X871220Y778510D01*
X881380D01*
X876300Y768350D01*
X901700D02*
X896620Y778510D01*
X906780D01*
X901700Y768350D01*
X876300Y742950D02*
X871220Y753110D01*
X881380D01*
X876300Y742950D01*
X901700D02*
X896620Y753110D01*
X906780D01*
X901700Y742950D01*
X876300Y717550D02*
X871220Y727710D01*
X881380D01*
X876300Y717550D01*
X901700D02*
X896620Y727710D01*
X906780D01*
X901700Y717550D01*
D14*
X745810Y926770D02*
G03*
X745810Y926770I-5080J0D01*
G01*
M02*
